<?xml version="1.0" encoding="UTF-8" standalone="no"?>
<!-- This Source Code Form is subject to the terms of the Mozilla Public
   - License, v. 2.0. If a copy of the MPL was not distributed with this
   - file, You can obtain one at http://mozilla.org/MPL/2.0/. -->

<svg
   width="16"
   height="16"
   viewBox="0 0 16 16"
   version="1.1"
   id="svg45081"
   sodipodi:docname="addmagnet.svg"
   inkscape:version="1.1 (c68e22c387, 2021-05-23)"
   xmlns:inkscape="http://www.inkscape.org/namespaces/inkscape"
   xmlns:sodipodi="http://sodipodi.sourceforge.net/DTD/sodipodi-0.dtd"
   xmlns="http://www.w3.org/2000/svg"
   xmlns:svg="http://www.w3.org/2000/svg">
  <defs
     id="defs45085" />
  <sodipodi:namedview
     id="namedview45083"
     pagecolor="#ffffff"
     bordercolor="#666666"
     borderopacity="1.0"
     inkscape:pageshadow="2"
     inkscape:pageopacity="0.0"
     inkscape:pagecheckerboard="0"
     showgrid="false"
     inkscape:snap-object-midpoints="true"
     inkscape:snap-midpoints="false"
     inkscape:object-nodes="true"
     inkscape:snap-intersection-paths="true"
     inkscape:object-paths="false"
     inkscape:snap-smooth-nodes="true"
     inkscape:snap-center="true"
     inkscape:snap-others="false"
     inkscape:snap-nodes="false"
     inkscape:snap-bbox="true"
     inkscape:snap-bbox-edge-midpoints="false"
     inkscape:bbox-nodes="false"
     inkscape:zoom="22.627417"
     inkscape:cx="2.3201941"
     inkscape:cy="9.5238445"
     inkscape:window-width="1868"
     inkscape:window-height="1051"
     inkscape:window-x="52"
     inkscape:window-y="0"
     inkscape:window-maximized="1"
     inkscape:current-layer="svg45081" />
  <rect
     style="fill:#000000;fill-opacity:1;fill-rule:evenodd;stroke-width:1.38877;paint-order:stroke fill markers"
     id="rect91227"
     width="2.4797556"
     height="1.8"
     x="4.8822432"
     y="-4.6353116"
     transform="rotate(45)" />
  <rect
     style="fill:#000000;fill-opacity:1;fill-rule:evenodd;stroke-width:1.05146;paint-order:stroke fill markers"
     id="rect91229"
     width="2.4797556"
     height="1.8"
     x="12.321508"
     y="-4.6353116"
     transform="rotate(45)" />
  <path
     id="rect95476"
     style="fill-rule:evenodd;stroke-width:0;paint-order:stroke fill markers"
     d="M 7.5959683,5.9734301 11.939655,4.3179145 11.014272,3.472887 l 2.109009,-2.3158156 0.0021,-0.0023 0.0038,-0.01329 -4.3397017,1.6465621 0.9414886,0.8639233 z" />
  <path
     fill="context-fill"
     d="M 14.912107,12.214303 H 12.582611 V 9.8848067 a 0.46589951,0.46589951 0 0 0 -0.931798,0 V 12.214303 H 9.3213191 a 0.46589951,0.46589951 0 1 0 0,0.931797 h 2.3294939 v 2.329497 a 0.46589951,0.46589951 0 0 0 0.931798,0 V 13.1461 h 2.329496 a 0.46589951,0.46589951 0 0 0 0,-0.931797 z"
     id="path96630"
     style="fill:#000000;fill-opacity:1;stroke-width:0.465899" />
  <path
     id="path97340"
     style="fill:#000000;fill-opacity:1;fill-rule:evenodd;stroke:none;stroke-width:0;stroke-miterlimit:4;stroke-dasharray:none;stroke-opacity:1;paint-order:stroke fill markers"
     d="M 4.9093905,1.9951425 2.2865031,4.6180299 c -1.93680942,1.9368095 -1.93680893,5.0769977 0,7.0138091 1.9368093,1.93681 5.0769991,1.936809 7.0138082,0 L 11.923198,9.0089509 10.169747,7.2554987 7.5468595,9.8783862 C 6.5784539,10.84679 5.0083603,10.846792 4.0399555,9.8783858 3.0715506,8.9099809 3.071551,7.3398861 4.0399551,6.3714822 L 6.6628426,3.7485947 Z"
     sodipodi:nodetypes="ccssccssccc" />
</svg>
